<svg width="154" height="102" viewBox="0 0 154 102" fill="none" xmlns="http://www.w3.org/2000/svg">
<path d="M46.9589 54.9922C60.0407 54.9922 70.6824 44.8831 70.6824 32.4595C70.6824 20.0329 60.0407 9.92383 46.9589 9.92383C33.8771 9.92383 23.2354 20.0329 23.2354 32.4595C23.2354 44.8831 33.8771 54.9922 46.9589 54.9922ZM46.9589 14.476C57.3978 14.476 65.8896 22.5431 65.8896 32.4595C65.8896 42.3729 57.3978 50.44 46.9589 50.44C36.52 50.44 28.0281 42.3729 28.0281 32.4595C28.0281 22.5431 36.52 14.476 46.9589 14.476Z" fill="black"/>
<path d="M55.173 31.3274C55.5613 34.0024 54.6171 36.3972 52.8219 38.1023C50.9844 39.8493 48.3687 40.7597 45.4939 40.2939C45.667 39.9403 45.7809 39.5584 45.7404 39.1425C45.6187 37.8889 44.4189 36.9672 43.1334 37.0858L39.0973 37.4414C37.6906 37.566 36.6645 38.9832 36.9895 40.2391L37.9381 43.9881C38.2018 45.0343 39.1831 45.7337 40.2658 45.7337C40.4515 45.7337 40.6387 45.713 40.8275 45.6715C41.6442 45.4853 42.2215 44.9059 42.4844 44.2069C47.6849 45.9787 52.8333 44.5305 56.2105 41.3208C59.0517 38.6243 60.5165 34.8255 59.9221 30.705C59.7411 29.4603 58.5289 28.583 57.2199 28.7608C55.9094 28.9327 54.9936 30.0826 55.173 31.3274ZM36.2797 36.2619C36.3967 36.2619 36.5137 36.253 36.6323 36.2381C37.9412 36.0544 38.8461 34.8956 38.6542 33.6538C38.2877 31.3119 39.0295 28.7755 41.0163 26.8908C42.9048 25.0989 45.4751 24.38 47.9386 24.6677C47.8403 24.9305 47.7826 25.2113 47.7935 25.5067C47.8403 26.7337 48.9028 27.6999 50.1868 27.6999C50.2164 27.6999 50.2461 27.6999 50.2741 27.6999C52.5494 27.6072 53.7522 27.6038 54.7338 27.5159C56.245 27.3778 57.0889 25.9372 56.8673 24.8518L56.0623 20.8212C55.8158 19.5824 54.5536 18.7703 53.2618 19.0074C52.2742 19.1873 51.5519 19.9158 51.3647 20.796C46.7248 19.2129 41.3369 20.1475 37.6292 23.6693C34.5611 26.5811 33.3282 30.5602 33.9114 34.3177C34.0877 35.4498 35.1111 36.2619 36.2797 36.2619Z" fill="black"/>
<path d="M153.368 39.5735C153.368 38.1169 152.697 36.6906 151.579 35.7195L124.548 12.0178C123.525 11.1074 122.183 10.6218 120.778 10.6218C120.081 10.6218 93.5886 10.6218 93.9377 10.6218V8.22434C93.9377 3.70254 90.0397 0 85.2469 0H25.6253C24.1557 0 22.75 0.546239 21.6953 1.54777L1.62957 20.6061C0.574912 21.6077 0 22.943 0 24.339C0 40.5418 0 55.2536 0 73.3507C0 77.9029 3.86603 81.6054 8.65879 81.6054H12.7167C12.3977 82.8304 12.18 84.0912 12.18 85.4082C12.18 94.1925 19.7046 101.341 28.9547 101.341C38.2048 101.341 45.7293 94.1925 45.7293 85.4082C45.7293 84.0912 45.5117 82.8304 45.1926 81.6054H91.5413H101.078C100.759 82.8304 100.542 84.0912 100.542 85.4082C100.542 94.1925 108.066 101.341 117.316 101.341C126.567 101.341 134.091 94.1925 134.091 85.4082C134.091 84.0912 133.873 82.8304 133.554 81.6054H147.841C150.876 81.6054 153.368 79.2686 153.368 76.3553V39.5735ZM148.575 64.2714H139.553C138.007 64.2714 136.75 63.077 136.75 61.61C136.75 60.14 138.007 58.9457 139.553 58.9457H148.575V64.2714ZM144.861 36.0247H122.47V16.3916L144.861 36.0247ZM5.01664 23.8534L25.1136 4.76464C25.2415 4.61293 25.4334 4.55218 25.6253 4.55218H85.2469C87.3882 4.55218 89.1449 6.1909 89.1449 8.22434C89.1449 15.6026 89.1449 49.7486 89.1449 60.8217H4.79276V24.339C4.79276 24.157 4.85672 23.9749 5.01664 23.8534ZM28.9547 96.7886C22.3475 96.7886 16.9728 91.6823 16.9728 85.4082C16.9728 79.1341 22.3475 74.0277 28.9547 74.0277C35.5619 74.0277 40.9366 79.1341 40.9366 85.4082C40.9366 91.6823 35.5619 96.7886 28.9547 96.7886ZM28.9547 69.4756C22.9395 69.4756 17.6975 72.5239 14.7355 77.0533H8.65879C6.51827 77.0533 4.79276 75.3842 4.79276 73.3507V65.3739H89.1449V77.0533H43.1738C40.2119 72.5239 34.9698 69.4756 28.9547 69.4756ZM117.316 96.7886C110.709 96.7886 105.335 91.6823 105.335 85.4082C105.335 79.1341 110.709 74.0277 117.316 74.0277C123.924 74.0277 129.298 79.1341 129.298 85.4082C129.298 91.6823 123.924 96.7886 117.316 96.7886ZM147.841 77.0533H131.536C128.574 72.5239 123.332 69.4756 117.316 69.4756C111.301 69.4756 106.059 72.5239 103.097 77.0533H93.9377V15.1739H117.677V38.3008C117.677 39.5574 118.75 40.5769 120.073 40.5769H148.575V54.3935H139.553C135.364 54.3935 131.957 57.6298 131.957 61.61C131.957 65.5872 135.364 68.8236 139.553 68.8236H148.575V76.3553C148.575 76.7497 148.224 77.0533 147.841 77.0533Z" fill="black"/>
<path d="M128.854 44.741H120.073C118.75 44.741 117.677 45.7605 117.677 47.0171C117.677 48.2736 118.75 49.2931 120.073 49.2931H128.854C130.177 49.2931 131.25 48.2736 131.25 47.0171C131.25 45.7605 130.177 44.741 128.854 44.741ZM28.9548 78.58C24.9904 78.58 21.7656 81.6444 21.7656 85.4083C21.7656 89.1721 24.9904 92.2366 28.9548 92.2366C32.9191 92.2366 36.1439 89.1721 36.1439 85.4083C36.1439 81.6444 32.9191 78.58 28.9548 78.58ZM28.9548 87.6844C27.6333 87.6844 26.5584 86.6619 26.5584 85.4083C26.5584 84.1547 27.6333 83.1322 28.9548 83.1322C30.2762 83.1322 31.3511 84.1547 31.3511 85.4083C31.3511 86.6619 30.2762 87.6844 28.9548 87.6844ZM117.317 78.58C113.352 78.58 110.127 81.6444 110.127 85.4083C110.127 89.1721 113.352 92.2366 117.317 92.2366C121.281 92.2366 124.506 89.1721 124.506 85.4083C124.506 81.6444 121.281 78.58 117.317 78.58ZM117.317 87.6844C115.995 87.6844 114.92 86.6619 114.92 85.4083C114.92 84.1547 115.995 83.1322 117.317 83.1322C118.638 83.1322 119.713 84.1547 119.713 85.4083C119.713 86.6619 118.638 87.6844 117.317 87.6844Z" fill="black"/>
</svg>
