<svg width="81" height="77" viewBox="0 0 81 77" fill="none" xmlns="http://www.w3.org/2000/svg">
<path d="M30.0616 65.4672C30.0616 67.1116 28.6592 68.4436 26.9278 68.4436H7.63168C4.88181 68.4436 2.41397 67.0893 1.03512 64.8272C-0.343732 62.5651 -0.343732 59.8565 1.02729 57.5944L13.6407 36.8188L8.63448 38.0986C6.96576 38.5228 5.24219 37.5852 4.79563 35.9928C4.34907 34.4078 5.3362 32.7708 7.01276 32.3466L19.3284 29.199C19.3363 29.199 19.3441 29.199 19.3441 29.199C19.54 29.1544 19.7358 29.1172 19.9395 29.1097C20.0179 29.1023 20.0962 29.1172 20.1745 29.1172C20.2999 29.1172 20.4252 29.1172 20.5584 29.1321C20.6446 29.1469 20.7308 29.1693 20.817 29.1842C20.9266 29.2065 21.0442 29.2214 21.1538 29.2586C21.287 29.3032 21.4124 29.3627 21.5456 29.4223C21.6004 29.452 21.6631 29.4669 21.7179 29.4967C21.7649 29.519 21.8041 29.5562 21.8511 29.586C21.9765 29.6604 22.1018 29.7422 22.2193 29.839C22.2977 29.9059 22.3603 29.9804 22.4309 30.0473C22.5014 30.1143 22.5719 30.1813 22.6345 30.2631C22.7051 30.345 22.7521 30.4417 22.8147 30.531C22.8617 30.6054 22.9166 30.6798 22.9636 30.7542C23.0419 30.9105 23.1046 31.0742 23.1595 31.2379C23.1673 31.2602 23.1751 31.2826 23.183 31.3049L26.4969 43.0023C26.9435 44.5873 25.9563 46.2244 24.2798 46.6485C24.0056 46.7155 23.7314 46.7527 23.465 46.7527C22.0861 46.7527 20.817 45.8746 20.4409 44.5501L19.0934 39.7952L6.46436 60.5709C6.12748 61.129 6.3155 61.6126 6.46436 61.8508C6.61321 62.0889 6.95792 62.4907 7.63168 62.4907H26.92C28.6592 62.4907 30.0616 63.8227 30.0616 65.4672ZM25.3139 23.5214C26.8103 24.3474 28.7297 23.8637 29.5993 22.435L39.267 6.58541C39.6039 6.02732 40.1444 5.94547 40.4343 5.94547C40.7242 5.94547 41.2647 6.02732 41.6016 6.58541L54.2307 27.3536L49.2245 26.0812C47.5479 25.6571 45.8322 26.5946 45.3856 28.187C44.9391 29.772 45.934 31.4091 47.6028 31.8332L59.9184 34.9659H59.9263C60.036 34.9957 60.1456 35.0106 60.2553 35.0255C60.2788 35.0255 60.3023 35.0329 60.3258 35.0403C60.4042 35.0478 60.4825 35.0478 60.5609 35.0552C60.6157 35.0552 60.6784 35.0627 60.7332 35.0627C60.8899 35.0627 61.0466 35.0478 61.1954 35.0255C61.2425 35.018 61.2895 35.0106 61.3365 34.9957C61.4461 34.9734 61.548 34.951 61.6498 34.9213C61.7047 34.9064 61.7517 34.8915 61.8065 34.8692C61.9084 34.832 62.0024 34.7948 62.0964 34.7501C62.1434 34.7278 62.1904 34.7055 62.2374 34.6832C62.2531 34.6757 62.2766 34.6683 62.2923 34.6534C62.3314 34.6311 62.3549 34.6013 62.3941 34.5864C62.5116 34.5195 62.6213 34.445 62.7232 34.3632C62.778 34.3185 62.825 34.2739 62.8798 34.2292C62.9739 34.1474 63.0522 34.0581 63.1384 33.9688C63.1775 33.9242 63.2246 33.8721 63.2637 33.8274C63.3421 33.7233 63.4126 33.6042 63.4831 33.4926C63.5066 33.4479 63.5379 33.4107 63.5536 33.3661C63.6319 33.2024 63.7024 33.0387 63.7573 32.8526L67.0556 21.1552C67.5021 19.5702 66.5072 17.9331 64.8384 17.509C63.1697 17.0849 61.4461 18.0299 60.9996 19.6148L59.6599 24.3697L47.0309 3.61639C45.652 1.35429 43.192 0 40.4421 0C40.4421 0 40.4421 0 40.4343 0C37.6844 0 35.2166 1.34685 33.8456 3.60895L24.1779 19.4586C23.3083 20.8798 23.8175 22.6955 25.3139 23.5214ZM79.8491 57.587L70.2128 41.7299C69.3432 40.3087 67.4316 39.8175 65.9352 40.6435C64.4389 41.4695 63.9218 43.2851 64.7914 44.7064L74.4356 60.5634C74.7724 61.1215 74.5844 61.6052 74.4356 61.8433C74.2867 62.0814 73.942 62.4833 73.2682 62.4833H48.018L51.6845 59.0008C52.9067 57.84 52.9067 55.9574 51.6845 54.7891C50.4623 53.6283 48.4724 53.6283 47.2502 54.7891L38.2328 63.3613C38.084 63.5027 37.9586 63.6515 37.8411 63.8152C37.7941 63.8896 37.7549 63.964 37.7158 64.0385C37.6609 64.1352 37.5982 64.2245 37.5591 64.3212C37.5199 64.418 37.4886 64.5221 37.4572 64.6263C37.4337 64.7082 37.3946 64.79 37.3789 64.8793C37.3005 65.2663 37.3005 65.6606 37.3789 66.0476C37.3946 66.1369 37.4337 66.2187 37.4572 66.3006C37.4886 66.4047 37.5121 66.5015 37.5591 66.6057C37.6061 66.7024 37.6609 66.7991 37.7158 66.8884C37.7628 66.9628 37.7941 67.0447 37.8411 67.1117C37.9586 67.2754 38.084 67.4316 38.2328 67.5656L47.2502 76.1303C47.8613 76.7107 48.6604 77.0009 49.4674 77.0009C50.2743 77.0009 51.0734 76.7107 51.6845 76.1303C52.9067 74.9695 52.9067 73.0869 51.6845 71.9186L48.018 68.4436H73.2604C76.0181 68.4436 78.4781 67.0893 79.857 64.8272C81.2358 62.5651 81.228 59.8565 79.8491 57.587Z" fill="#1F1B3B"/>
</svg>
